<?xml version="1.0" encoding="utf-8"?>
<!-- Generator: Adobe Illustrator 24.3.0, SVG Export Plug-In . SVG Version: 6.00 Build 0)  -->
<svg version="1.1" id="Layer_1" xmlns="http://www.w3.org/2000/svg" xmlns:xlink="http://www.w3.org/1999/xlink" x="0px" y="0px"
	 viewBox="0 0 1311.94 540.97" style="enable-background:new 0 0 1311.94 540.97;">
<style type="text/css">
	.st0{fill:#5FAF2D;}
</style>
<g>
	<g>
		<g>
			<path d="M386.58,400.33l-29-48.2l-28.4,48.2h-34l43.68-72.6l-44.52-67.4h35.52l28.52,45l27.2-45h34l-43.8,69.6l45,70.4H386.58z"
				/>
			<path d="M531.3,352.74c0,30.8-23.2,50-53.6,50c-26.8,0-49.36-14.8-51.56-47h29c2,14,13.2,20,25.4,20
				c15.2,0,21.76-10.2,21.76-23.4c0-13.8-10.2-22.4-24.4-22.4c-11.8,0-19.6,5.6-23.2,11.6h-27.72l9.58-81.2h91.17l-3.04,27.2h-65.22
				l-2.59,26.87c0,0,6.85-8.07,27.61-8.07C509.5,306.34,531.3,323.13,531.3,352.74z"/>
		</g>
		<path class="st0" d="M429.57,242.9c-15.45-60.22-64.46-102.53-166.17-102.53H140.6l16.67,112.72
			c12.54,101.71,51.44,134.43,120.28,146.48c0.32,0.05,2.5,0.36,2.53-2.19c0.01-0.92-0.57-1.71-1.37-2.05
			c-46.53-19.59-51.84-83.84-61.78-148.31l-7.69-51.38h70.1c64.63,0,114.53-1.02,146.12,48.87c0.47,0.7,1.2,1.22,2.07,1.22
			c1.22,0,2.13-0.99,2.13-2.21C429.66,243.3,429.63,243.09,429.57,242.9z"/>
	</g>
	<g>
		<path d="M698.22,327.41c0,0,7.26,77.86-71.42,77.86c-41.52,0-73.5-31.77-73.5-74.95s32.18-74.95,74.75-74.95
			c32.81,0,58.97,18.89,68.93,47.96h-18.48c-8.72-19.1-27.61-31.56-50.66-31.56c-32.81,0-57.1,24.92-57.1,58.97
			c0,33.01,23.05,58.55,57.1,58.55c28.65,0,50.45-18.27,52.95-47.13h-55.93v-14.74H698.22z"/>
		<path d="M786.67,286.92v17.65c-1.87-0.21-4.36-0.42-7.27-0.42c-23.88,0-40.49,15.57-40.49,44.85v53.98h-17.23v-114.2h17.23v25.54
			c6.85-17.03,20.55-27.82,40.69-27.82C782.31,286.51,785.01,286.71,786.67,286.92z"/>
		<path d="M912.77,345.89c0,34.26-25.95,59.38-58.97,59.38c-32.81,0-58.76-25.33-58.76-59.38c0-34.26,26.37-59.38,58.76-59.38
			C886.4,286.51,912.77,311.63,912.77,345.89z M812.48,345.89c0,25.12,18.27,42.98,41.32,42.98c23.25,0,41.52-17.86,41.52-42.98
			c0-25.12-18.48-42.98-41.52-42.98C830.96,302.91,812.48,320.56,812.48,345.89z"/>
		<path d="M1031.95,288.79v114.2h-17.23v-22.63c-7.68,14.95-20.97,24.92-40.7,24.92c-25.33,0-40.49-16.19-40.49-44.02v-72.46h17.23
			v69.14c0,20.35,9.55,30.94,28.24,30.94c22.63,0,35.71-16.19,35.71-41.53v-58.55H1031.95z"/>
		<path d="M1171.96,345.89c0,34.47-22.42,59.38-53.57,59.38c-19.72,0-35.09-9.97-43.81-25.33v74.95h-17.23v-166.1h17.23v23.46
			c8.72-15.57,24.29-25.75,44.02-25.75C1149.54,286.51,1171.96,311.21,1171.96,345.89z M1154.52,345.89
			c0-24.92-16.19-42.98-39.24-42.98c-23.25,0-40.9,17.86-40.9,42.98c0,25.12,17.65,42.98,40.9,42.98
			C1138.33,388.87,1154.52,371.01,1154.52,345.89z"/>
	</g>
</g>
</svg>
